<?xml version="1.0" encoding="utf-8"?>
<!-- Generator: Adobe Illustrator 21.0.0, SVG Export Plug-In . SVG Version: 6.00 Build 0)  -->
<svg version="1.1" id="Layer_1" xmlns="http://www.w3.org/2000/svg" xmlns:xlink="http://www.w3.org/1999/xlink" x="0px" y="0px"
	 viewBox="0 0 225 65" style="enable-background:new 0 0 225 65;" xml:space="preserve">
<style type="text/css">
	.st0{fill:#a3e635;}
	.st1{fill:#3b82f6;}
	.st2{fill:url(#_Path__1_);}
	.st3{fill:url(#_Path_2_1_);}
	.st4{fill:#FFFFFF;}
	.st5{fill:#f9fafb;}
</style>
<title>header_logo</title>
<g id="_Group_">
	<g id="_Group_2">
		<path class="st0" d="M41.2,8.3c-7,14.1-10.5,29.2-15.1,44.6c-0.4,1.5-0.9,3.1-1.6,4.5c2.5,0.7,5.1,1.1,7.7,1.1
			c14.4,0.1,26.3-11.4,26.4-25.9c0,0,0,0,0,0C58.6,21.6,51.6,11.9,41.2,8.3z"/>
		<path class="st0" d="M45.3,2.3l-1.9,6.8c1,0.5,1.8,0.9,2.8,1.5L45.3,2.3z"/>
		<path class="st1" d="M32.2,6.7C17.9,6.4,6,17.8,5.7,32.2c0,0.1,0,0.2,0,0.3C5.8,44,13.5,54.1,24.5,57.3c0.6-1.5,1.2-3,1.6-4.5
			c4.6-15.4,8.1-30.5,15.1-44.5C38.4,7.3,35.3,6.7,32.2,6.7z"/>
		<polygon class="st1" points="17.8,62.7 19.8,55.4 17.8,54.3 		"/>
		
			<linearGradient id="_Path__1_" gradientUnits="userSpaceOnUse" x1="33.6027" y1="746.1005" x2="36.5028" y2="731.4305" gradientTransform="matrix(1 0 0 1 0 -721)">
			<stop  offset="0" style="stop-color:#FFFFFF;stop-opacity:0"/>
			<stop  offset="0.12" style="stop-color:#FFFFFF;stop-opacity:0.12"/>
			<stop  offset="1" style="stop-color:#FFFFFF"/>
		</linearGradient>
		<ellipse id="_Path_" class="st2" cx="32.1" cy="32.5" rx="22.1" ry="21.7"/>
		
			<linearGradient id="_Path_2_1_" gradientUnits="userSpaceOnUse" x1="32.6479" y1="751.6994" x2="23.5479" y2="783.9594" gradientTransform="matrix(1 0 0 1 0 -721)">
			<stop  offset="0" style="stop-color:#FFFFFF;stop-opacity:0"/>
			<stop  offset="1" style="stop-color:#f9fafb"/>
		</linearGradient>
		<ellipse id="_Path_2" class="st3" cx="32.1" cy="32.5" rx="22.1" ry="21.7"/>
		<polygon id="_Path_3" class="st4" points="15,21.4 13.3,32.6 28.8,23.3 17.8,62.7 48.7,44.2 50.9,32.6 34.5,41.8 45.3,2.3 		"/>
		<polygon id="_Path_4" class="st4" points="15,21.4 13.3,32.6 28.8,23.3 17.8,62.7 48.7,44.2 50.9,32.6 34.5,41.8 45.3,2.3 		"/>
	</g>
	<g id="_Group_3">
		<g id="_Group_4">
			<path id="_Path_5" class="st5" d="M78.4,52.6c-1.1,0.4-2.3,0.6-3.5,0.6c-1.5,0.1-3-0.4-4.1-1.4c-1.1-1.1-1.7-2.6-1.6-4.1
				c0-3.2,2.3-5.6,6-5.6c1,0,1.9,0.2,2.8,0.5l-0.4,1.1c-0.8-0.3-1.7-0.4-2.5-0.4c-2.7,0-4.4,1.6-4.4,4.3S72.3,52,75,52
				c0.6,0.1,1.3,0,1.9-0.3v-3.3h-2.3v-1h3.7L78.4,52.6L78.4,52.6z"/>
			<path id="_Compound_Path_" class="st5" d="M92,42.3c0.9-0.1,1.9-0.2,2.8-0.2c1.6,0,2.6,0.3,3.1,0.9c1.2,1.1,1.2,3,0.1,4.1
				c-0.4,0.4-0.8,0.6-1.3,0.8V48c0.9,0.3,1.6,1.2,1.6,2.2c0.2,1,0.5,2,0.9,3h-1.5c-0.1-0.3-0.4-1.3-0.8-2.6
				c-0.3-1.6-0.9-2.1-2.3-2.1h-1.4v4.8h-1.4V42.5H92V42.3z M93.5,47.2h1.4c1.5,0,2.6-0.8,2.6-2.1s-1.1-2-2.6-2.1
				c-0.5,0-0.9,0-1.4,0.1V47.2z"/>
			<path id="_Compound_Path_2" class="st5" d="M114.3,49.6l-1.1,3.4h-1.5l3.8-10.9h1.7L121,53h-1.6l-1.2-3.4H114.3z M117.8,48.5
				l-1.1-3.1c-0.2-0.7-0.4-1.4-0.6-2H116c-0.1,0.6-0.4,1.4-0.5,1.9l-1.1,3.1L117.8,48.5L117.8,48.5z"/>
			<path id="_Compound_Path_3" class="st5" d="M134.1,42.3c0.9-0.1,1.9-0.2,2.8-0.2c1.1-0.1,2.2,0.2,3.1,0.9c0.6,0.6,1,1.4,1,2.3
				c0,0.9-0.3,1.7-0.9,2.3c-0.9,0.8-2.1,1.2-3.3,1.2c-0.4,0-0.7,0-1.1-0.1V53h-1.5L134.1,42.3z M135.4,47.5c0.4,0.1,0.8,0.1,1.2,0.1
				c1.7,0,2.8-0.8,2.8-2.3s-1.1-2.1-2.6-2.1c-0.6,0-1.1,0.1-1.4,0.1V47.5z"/>
			<path id="_Path_6" class="st5" d="M155.8,42.2v4.6h5.3v-4.6h1.4v10.9h-1.4V48h-5.3v5.1h-1.4V42.2H155.8z"/>
			<path id="_Path_7" class="st5" d="M177.9,42.2v10.9h-1.4V42.2H177.9z"/>
			<path id="_Path_8" class="st5" d="M199.8,52.7c-0.9,0.3-1.9,0.5-2.9,0.5c-2.8,0.2-5.3-1.9-5.5-4.8c0-0.2,0-0.5,0-0.7
				c-0.2-3,2.2-5.6,5.2-5.8c0.2,0,0.4,0,0.6,0c0.9,0,1.8,0.1,2.6,0.4l-0.4,1.1c-0.7-0.3-1.5-0.4-2.3-0.4c-2.6,0-4.3,1.6-4.3,4.5
				c-0.2,2.2,1.5,4.1,3.7,4.3c0.2,0,0.4,0,0.6,0c0.8,0,1.6-0.1,2.3-0.4L199.8,52.7z"/>
			<path id="_Path_9" class="st5" d="M212.8,51.4c0.8,0.5,1.7,0.7,2.6,0.7c1.4,0,2.3-0.7,2.3-1.9c0-1-0.6-1.6-2.1-2.2
				c-1.8-0.6-2.9-1.6-2.9-3.1c0-1.7,1.4-2.9,3.6-2.9c0.9,0,1.7,0.1,2.5,0.5l-0.4,1.1c-0.7-0.3-1.4-0.5-2.1-0.5
				c-1.5,0-2.1,0.9-2.1,1.6c0,1,0.6,1.6,2.3,2.1c1.8,0.7,2.8,1.6,2.8,3.1c0,1.7-1.3,3.1-3.9,3.1c-1,0-2-0.2-2.8-0.7L212.8,51.4z"/>
		</g>
		<path id="_Path_10" class="st1" d="M71.2,11.7h15.9l-9.5,21.1h8.7v4.6h-16l9.3-20.8h-8.4V11.7z"/>
		<path id="_Path_11" class="st1" d="M112.5,18.4h4.9v2.2c0.8-0.9,1.7-1.6,2.8-2c1.1-0.4,2.2-0.6,3.3-0.6c1.2,0,2.3,0.3,3.3,0.9
			c1,0.6,1.8,1.5,2.3,2.5c0.7-1,1.7-1.9,2.8-2.5c2.3-1.2,5.1-1.2,7.4,0c1,0.6,1.8,1.4,2.3,2.5c0.5,1.6,0.7,3.2,0.6,4.9v11.1h-5v-9.6
			c0-2.2-0.3-3.7-0.9-4.4c-0.6-0.7-1.5-1.1-2.5-1.1c-0.8,0-1.6,0.2-2.3,0.7c-0.7,0.5-1.2,1.2-1.5,1.9c-0.3,1.3-0.5,2.7-0.4,4v8.6h-5
			v-9.2c0.1-1.2-0.1-2.5-0.4-3.7c-0.2-0.7-0.5-1.3-1.1-1.7c-0.5-0.4-1.1-0.6-1.8-0.6c-0.8,0-1.6,0.2-2.3,0.7c-0.7,0.5-1.2,1.2-1.5,2
			c-0.3,1.3-0.5,2.7-0.4,4v8.5h-4.9v-19h0.1C112.5,18.5,112.5,18.4,112.5,18.4z"/>
		<path id="_Path_12" class="st0" d="M146,11.7h15.9l-9.4,21.1h8.7v4.6h-16l9.3-20.8H146V11.7z"/>
		<path id="_Path_13" class="st0" d="M188.5,18.4h4.9v2.2c0.8-0.9,1.7-1.6,2.8-2c1.1-0.4,2.2-0.6,3.3-0.6c1.2,0,2.3,0.3,3.3,0.9
			c1,0.6,1.8,1.5,2.3,2.5c0.7-1,1.7-1.9,2.8-2.5c2.3-1.2,5.1-1.2,7.4,0c1,0.6,1.8,1.4,2.3,2.5c0.5,1.6,0.7,3.2,0.6,4.9v11.1h-5v-9.6
			c0-2.2-0.3-3.7-0.9-4.4c-0.6-0.7-1.5-1.2-2.5-1.1c-0.8,0-1.6,0.2-2.3,0.7c-0.7,0.5-1.2,1.2-1.5,1.9c-0.3,1.3-0.5,2.7-0.4,4v8.6h-5
			v-9.2c0.1-1.2-0.1-2.5-0.4-3.7c-0.2-0.7-0.5-1.3-1.1-1.7c-0.5-0.4-1.1-0.6-1.8-0.6c-0.8,0-1.6,0.2-2.3,0.7c-0.7,0.5-1.2,1.2-1.5,2
			c-0.3,1.3-0.5,2.7-0.4,4v8.5h-4.9v-19h0.1L188.5,18.4L188.5,18.4z"/>
		<path id="_Compound_Path_4" class="st1" d="M102.6,18.4v1c-1.4-0.8-3-1.2-4.6-1.2c-5.3,0-9.6,4.3-9.6,9.6s4.3,9.6,9.6,9.6
			c1.6,0,3.2-0.4,4.6-1.2v1.3h5V18.4H102.6z M98.1,32.9c-2.9,0-5.2-2.3-5.3-5.1c0-2.9,2.4-5.1,5.2-5.1c0,0,0,0,0.1,0
			c1.9,0,3.7,1.1,4.6,2.8c0.4,0.7,0.5,1.5,0.5,2.3c0,0.8-0.1,1.6-0.5,2.3C101.7,31.8,100,32.9,98.1,32.9z"/>
		<path id="_Compound_Path_5" class="st0" d="M178.7,18.4v1c-1.4-0.8-3-1.2-4.6-1.2c-5.3,0-9.6,4.3-9.6,9.6s4.3,9.6,9.6,9.6
			c1.6,0,3.2-0.4,4.6-1.2v1.3h4.9V18.4H178.7z M174,32.9c-2.9,0-5.2-2.3-5.3-5.1c0-2.9,2.4-5.1,5.2-5.1c0,0,0,0,0.1,0
			c1.9,0,3.7,1.1,4.6,2.8c0.4,0.7,0.5,1.5,0.5,2.3c0,0.8-0.1,1.6-0.5,2.3C177.7,31.8,175.9,32.9,174,32.9z"/>
	</g>
</g>
</svg>
